<?xml version="1.0" encoding="UTF-8" standalone="no"?>
<svg id="Layer_1" data-name="Layer 1" xmlns="http://www.w3.org/2000/svg" viewBox="0 0 1126 2160.68">
<defs><style>.cls-1,.cls-2{fill:#00003f;stroke:#000;stroke-miterlimit:10;}.cls-1{opacity:0.21;}.cls-2{opacity:0.47;}</style></defs><path class="cls-1" d="M0,1020C307.66,869.83,478.54,719.6,578.5,607.5c29-32.54,77.55-90.46,160-152C879.58,350.19,1024.65,305.39,1125,284V1444c-217.56-3.06-371.63,44.76-470.5,87.5-164.38,71.06-230.57,151.61-348,144C167.74,1666.5,63.57,1541.29,0,1444Z" transform="translate(0.5 0.5)"/><path class="cls-2" d="M0,492c69.49-6.36,173.06-6.89,286.5,31.5,156.77,53,247.43,151.68,336,236C728.06,860,890.2,996.84,1125,1136v756c-57.67,121.43-146.21,261.74-262.5,267.5-108.78,5.38-164.83-110.78-308-196C447,1899.52,275.88,1844.35,0,1892Z" transform="translate(0.5 0.5)"/><path class="cls-2" d="M379,0c-31.49,10.45-76.17,30.47-112.5,71.5-41.78,47.17-42.41,88.1-68,132C173.72,246,121.79,297.76,0,328V0Z" transform="translate(0.5 0.5)"/></svg>